<?xml version="1.0" encoding="UTF-8"?>
<!DOCTYPE svg PUBLIC "-//W3C//DTD SVG 1.1//EN" "http://www.w3.org/Graphics/SVG/1.1/DTD/svg11.dtd">
<!-- Creator: CorelDRAW 2018 (64-Bit) -->
<svg xmlns="http://www.w3.org/2000/svg" xml:space="preserve" width="114px" height="114px" version="1.1" style="shape-rendering:geometricPrecision; text-rendering:geometricPrecision; image-rendering:optimizeQuality; fill-rule:evenodd; clip-rule:evenodd"
viewBox="0 0 7.98 7.98"
 xmlns:xlink="http://www.w3.org/1999/xlink">
 <defs>
  <style type="text/css">
   <![CDATA[
    .fil0 {fill:#375895;fill-rule:nonzero}
    .fil1 {fill:#FEFEFE;fill-rule:nonzero}
   ]]>
  </style>
 </defs>
 <g id="Слой_x0020_1">
  <metadata id="CorelCorpID_0Corel-Layer"/>
  <g id="_2411149943984">
   <path class="fil0" d="M7.19 0l-6.4 0c-0.44,0 -0.79,0.35 -0.79,0.79l0 6.4c0,0.44 0.35,0.79 0.79,0.79l6.4 0c0.44,0 0.79,-0.35 0.79,-0.79l0 -6.4c0,-0.44 -0.35,-0.79 -0.79,-0.79z"/>
   <path class="fil1" d="M4.44 6.98l0 -2.63 0.88 0 0.13 -1.03 -1.01 0 0 -0.65c0,-0.3 0.08,-0.5 0.5,-0.5l0.55 0 0 -0.92c-0.1,-0.01 -0.42,-0.04 -0.79,-0.04 -0.79,0 -1.32,0.48 -1.32,1.36l0 0.75 -0.89 0 0 1.03 0.89 0 0 2.63 1.06 0z"/>
  </g>
 </g>
</svg>
