<?xml version="1.0" encoding="UTF-8"?>
<!DOCTYPE svg PUBLIC "-//W3C//DTD SVG 1.1//EN" "http://www.w3.org/Graphics/SVG/1.1/DTD/svg11.dtd">
<!-- Creator: CorelDRAW 2018 (64-Bit) -->
<svg xmlns="http://www.w3.org/2000/svg" xml:space="preserve" width="114px" height="114px" version="1.1" style="shape-rendering:geometricPrecision; text-rendering:geometricPrecision; image-rendering:optimizeQuality; fill-rule:evenodd; clip-rule:evenodd"
viewBox="0 0 9.58 9.58"
 xmlns:xlink="http://www.w3.org/1999/xlink">
 <defs>
  <style type="text/css">
   <![CDATA[
    .fil1 {fill:#FEFEFE}
    .fil0 {fill:#2D86FA;fill-rule:nonzero}
   ]]>
  </style>
 </defs>
 <g id="Слой_x0020_1">
  <metadata id="CorelCorpID_0Corel-Layer"/>
  <g id="_2411063457680">
   <path class="fil0" d="M8.64 0l-7.7 0c-0.52,0 -0.94,0.42 -0.94,0.94l0 7.7c0,0.52 0.42,0.94 0.94,0.94l7.7 0c0.52,0 0.94,-0.42 0.94,-0.94l0 -7.7c0,-0.52 -0.42,-0.94 -0.94,-0.94z"/>
   <path class="fil1" d="M4.86 4.16l0 1.26 1.7 0c-0.05,0.27 -0.16,0.51 -0.35,0.72 -0.68,0.74 -1.95,0.74 -2.68,-0.01 -0.73,-0.75 -0.72,-1.96 0.02,-2.69 0.7,-0.71 1.83,-0.74 2.51,-0.07l0 0 0.93 -0.92c-1.24,-1.13 -3.16,-1.12 -4.37,0.08 -1.25,1.23 -1.26,3.24 -0.03,4.49 1.24,1.25 3.37,1.27 4.53,0.02 0.7,-0.74 0.9,-1.82 0.73,-2.88l-2.99 0z"/>
  </g>
 </g>
</svg>
