<?xml version="1.0" encoding="UTF-8"?>
<!DOCTYPE svg PUBLIC "-//W3C//DTD SVG 1.1//EN" "http://www.w3.org/Graphics/SVG/1.1/DTD/svg11.dtd">
<!-- Creator: CorelDRAW 2018 (64-Bit) -->
<svg xmlns="http://www.w3.org/2000/svg" xml:space="preserve" width="114px" height="114px" version="1.1" style="shape-rendering:geometricPrecision; text-rendering:geometricPrecision; image-rendering:optimizeQuality; fill-rule:evenodd; clip-rule:evenodd"
viewBox="0 0 24.23 24.23"
 xmlns:xlink="http://www.w3.org/1999/xlink">
 <defs>
  <style type="text/css">
   <![CDATA[
    .fil0 {fill:#2D5B82;fill-rule:nonzero}
    .fil1 {fill:#FEFEFE;fill-rule:nonzero}
   ]]>
  </style>
 </defs>
 <g id="Слой_x0020_1">
  <metadata id="CorelCorpID_0Corel-Layer"/>
  <g id="_2411063489200">
   <path class="fil0" d="M21.84 0l-19.45 0c-1.32,0 -2.39,1.07 -2.39,2.39l0 19.45c0,1.32 1.07,2.39 2.39,2.39l19.45 0c1.32,0 2.39,-1.07 2.39,-2.39l0 -19.45c0,-1.32 -1.07,-2.39 -2.39,-2.39z"/>
   <path class="fil1" d="M12.11 5c-1.93,0 -2.17,0.01 -2.93,0.05 -0.76,0.03 -1.27,0.15 -1.72,0.33 -0.47,0.18 -0.87,0.42 -1.26,0.82 -0.4,0.39 -0.64,0.79 -0.82,1.26 -0.18,0.45 -0.3,0.96 -0.33,1.72 -0.04,0.76 -0.05,1 -0.05,2.93 0,1.93 0.01,2.18 0.05,2.93 0.03,0.76 0.15,1.28 0.33,1.73 0.18,0.47 0.42,0.86 0.82,1.26 0.39,0.39 0.79,0.64 1.26,0.82 0.45,0.18 0.96,0.3 1.72,0.33 0.76,0.03 1,0.04 2.93,0.04 1.93,0 2.18,-0.01 2.93,-0.04 0.76,-0.03 1.28,-0.15 1.73,-0.33 0.47,-0.18 0.86,-0.43 1.26,-0.82 0.39,-0.4 0.64,-0.79 0.82,-1.26 0.18,-0.45 0.3,-0.97 0.33,-1.73 0.03,-0.75 0.04,-1 0.04,-2.93 0,-1.93 -0.01,-2.17 -0.04,-2.93 -0.03,-0.76 -0.15,-1.27 -0.33,-1.72 -0.18,-0.47 -0.43,-0.87 -0.82,-1.26 -0.4,-0.4 -0.79,-0.64 -1.26,-0.82 -0.45,-0.18 -0.97,-0.3 -1.73,-0.33 -0.75,-0.04 -1,-0.05 -2.93,-0.05zm0 1.28c1.9,0 2.13,0.01 2.88,0.05 0.69,0.03 1.07,0.14 1.32,0.24 0.33,0.13 0.56,0.28 0.81,0.53 0.25,0.25 0.41,0.49 0.54,0.82 0.09,0.25 0.21,0.63 0.24,1.32 0.03,0.75 0.04,0.97 0.04,2.87 0,1.9 -0.01,2.13 -0.04,2.88 -0.03,0.69 -0.15,1.07 -0.24,1.32 -0.13,0.33 -0.29,0.56 -0.54,0.81 -0.25,0.25 -0.48,0.41 -0.81,0.54 -0.25,0.09 -0.63,0.21 -1.32,0.24 -0.75,0.03 -0.98,0.04 -2.88,0.04 -1.9,0 -2.12,-0.01 -2.87,-0.04 -0.69,-0.03 -1.07,-0.15 -1.32,-0.24 -0.33,-0.13 -0.57,-0.29 -0.82,-0.54 -0.25,-0.25 -0.4,-0.48 -0.53,-0.81 -0.1,-0.25 -0.21,-0.63 -0.24,-1.32 -0.04,-0.75 -0.05,-0.98 -0.05,-2.88 0,-1.9 0.01,-2.12 0.05,-2.87 0.03,-0.69 0.14,-1.07 0.24,-1.32 0.13,-0.33 0.28,-0.57 0.53,-0.82 0.25,-0.25 0.49,-0.4 0.82,-0.53 0.25,-0.1 0.63,-0.21 1.32,-0.24 0.75,-0.04 0.97,-0.05 2.87,-0.05zm0 8.2c-1.31,0 -2.37,-1.06 -2.37,-2.37 0,-1.31 1.06,-2.37 2.37,-2.37 1.31,0 2.37,1.06 2.37,2.37 0,1.31 -1.06,2.37 -2.37,2.37zm0 -6.02c-2.01,0 -3.65,1.64 -3.65,3.65 0,2.02 1.64,3.65 3.65,3.65 2.02,0 3.65,-1.63 3.65,-3.65 0,-2.01 -1.63,-3.65 -3.65,-3.65zm4.65 -0.14c0,0.47 -0.38,0.85 -0.85,0.85 -0.47,0 -0.86,-0.38 -0.86,-0.85 0,-0.47 0.39,-0.86 0.86,-0.86 0.47,0 0.85,0.39 0.85,0.86z"/>
  </g>
 </g>
</svg>
