<?xml version="1.0" encoding="UTF-8"?>
<!DOCTYPE svg PUBLIC "-//W3C//DTD SVG 1.1//EN" "http://www.w3.org/Graphics/SVG/1.1/DTD/svg11.dtd">
<!-- Creator: CorelDRAW 2018 (64-Bit) -->
<svg xmlns="http://www.w3.org/2000/svg" xml:space="preserve" width="316px" height="50px" version="1.1" style="shape-rendering:geometricPrecision; text-rendering:geometricPrecision; image-rendering:optimizeQuality; fill-rule:evenodd; clip-rule:evenodd"
viewBox="0 0 210.78 33.31"
 xmlns:xlink="http://www.w3.org/1999/xlink">
 <defs>
  <style type="text/css">
   <![CDATA[
    .fil1 {fill:#4574B8}
    .fil2 {fill:#CC2128}
    .fil0 {fill:#CCCCCC}
    .fil3 {fill:#4D4D4D;fill-rule:nonzero}
   ]]>
  </style>
 </defs>
 <g id="Слой_x0020_1">
  <metadata id="CorelCorpID_0Corel-Layer"/>
  <path class="fil0" d="M5.72 4.1c2.99,3.34 4.8,7.74 4.8,12.55 0,4.82 -1.81,9.22 -4.8,12.56 2.94,2.55 6.78,4.1 10.99,4.1 4.21,0 8.05,-1.55 10.99,-4.1 -2.99,-3.34 -4.8,-7.74 -4.8,-12.56 0,-4.81 1.81,-9.21 4.8,-12.55 -2.94,-2.55 -6.78,-4.1 -10.99,-4.1 -4.21,0 -8.05,1.55 -10.99,4.1zm-1.57 23.54c2.58,-2.93 4.15,-6.77 4.15,-10.99 0,-4.21 -1.57,-8.05 -4.15,-10.98 -2.58,2.93 -4.15,6.77 -4.15,10.98 0,4.22 1.57,8.06 4.15,10.99z"/>
  <path class="fil1" d="M29.27 27.64c2.58,-2.93 4.15,-6.77 4.15,-10.99 0,-4.21 -1.57,-8.05 -4.15,-10.98 -2.58,2.93 -4.15,6.77 -4.15,10.98 0,4.22 1.57,8.06 4.15,10.99zm1.58 -23.54c2.98,3.34 4.79,7.74 4.79,12.55 0,4.82 -1.81,9.22 -4.79,12.56 2.93,2.55 6.78,4.1 10.98,4.1 4.21,0 8.05,-1.55 10.99,-4.1 -2.98,-3.34 -4.8,-7.74 -4.8,-12.56 0,-4.81 1.82,-9.21 4.8,-12.55 -2.94,-2.55 -6.78,-4.1 -10.99,-4.1 -4.2,0 -8.05,1.55 -10.98,4.1z"/>
  <path class="fil2" d="M55.97 4.1c2.98,3.34 4.8,7.74 4.8,12.55 0,4.82 -1.82,9.22 -4.8,12.56 2.94,2.55 6.78,4.1 10.99,4.1 4.2,0 8.05,-1.55 10.98,-4.1 -2.98,-3.34 -4.79,-7.74 -4.79,-12.56 0,-4.81 1.81,-9.21 4.79,-12.55 -2.93,-2.55 -6.78,-4.1 -10.98,-4.1 -4.21,0 -8.05,1.55 -10.99,4.1zm-1.57 23.54c2.58,-2.93 4.14,-6.77 4.14,-10.99 0,-4.21 -1.56,-8.05 -4.14,-10.98 -2.59,2.93 -4.15,6.77 -4.15,10.98 0,4.22 1.56,8.06 4.15,10.99zm25.12 0c2.58,-2.93 4.15,-6.77 4.15,-10.99 0,-4.21 -1.57,-8.05 -4.15,-10.98 -2.58,2.93 -4.15,6.77 -4.15,10.98 0,4.22 1.57,8.06 4.15,10.99z"/>
  <path class="fil3" d="M100.15 4.6c1.1,0 1.99,0.4 2.67,1.2 0.67,0.8 1.01,1.83 1.01,3.1 0,1.23 -0.34,2.23 -1.01,3.02 -0.67,0.79 -1.56,1.19 -2.67,1.19l0 1.32 -2 0 0 -1.32c-0.76,0 -1.41,-0.18 -1.96,-0.53 -0.55,-0.35 -0.98,-0.85 -1.29,-1.49 -0.31,-0.64 -0.46,-1.37 -0.46,-2.18 0,-1.26 0.34,-2.3 1.01,-3.1 0.68,-0.81 1.58,-1.21 2.7,-1.21l0 -1.36 2 0 0 1.36zm-2.11 1.79c-0.51,0 -0.91,0.22 -1.2,0.67 -0.29,0.44 -0.43,1.06 -0.43,1.85 0,0.73 0.14,1.31 0.43,1.74 0.29,0.44 0.7,0.65 1.21,0.65l0.1 0 0 -4.91 -0.11 0zm2.11 0l0 4.91 0.11 0c0.49,0 0.88,-0.21 1.17,-0.65 0.29,-0.44 0.43,-1.02 0.43,-1.76 0,-0.77 -0.14,-1.39 -0.43,-1.83 -0.29,-0.45 -0.68,-0.67 -1.2,-0.67l-0.08 0z"/>
  <polygon id="1" class="fil3" points="110.92,9.54 107.66,9.54 107.66,12.28 111.51,12.28 111.51,14.01 105.58,14.01 105.58,3.67 111.5,3.67 111.5,5.41 107.66,5.41 107.66,7.86 110.92,7.86 "/>
  <path id="2" class="fil3" d="M121.37 16.55l-1.92 0 0 -2.54 -4.89 0 0 2.54 -1.98 0 -0.11 -4.27 0.69 0c0.3,-0.28 0.54,-0.73 0.71,-1.35 0.18,-0.62 0.3,-1.44 0.37,-2.44l0.29 -4.82 5.95 0 0 8.61 1.07 0 -0.18 4.27zm-5.97 -4.27l3 0 0 -6.87 -1.88 0 -0.17 2.85c-0.12,1.71 -0.43,3.05 -0.95,4.02z"/>
  <polygon id="3" class="fil3" points="128.33,9.54 125.08,9.54 125.08,12.28 128.93,12.28 128.93,14.01 122.99,14.01 122.99,3.67 128.92,3.67 128.92,5.41 125.08,5.41 125.08,7.86 128.33,7.86 "/>
  <path id="4" class="fil3" d="M132.59 10.37l0 3.64 -2.09 0 0 -10.34 3.52 0c1.03,0 1.84,0.31 2.45,0.95 0.61,0.63 0.91,1.46 0.91,2.47 0,1.01 -0.3,1.81 -0.9,2.4 -0.6,0.59 -1.43,0.88 -2.5,0.88l-1.39 0zm0 -1.74l1.43 0c0.4,0 0.71,-0.13 0.93,-0.39 0.22,-0.26 0.32,-0.64 0.32,-1.14 0,-0.51 -0.11,-0.92 -0.33,-1.22 -0.22,-0.31 -0.52,-0.46 -0.89,-0.47l-1.46 0 0 3.22z"/>
  <path id="5" class="fil3" d="M142.82 11.9l-2.85 0 -0.56 2.11 -2.2 0 3.23 -10.34 1.91 0 3.25 10.34 -2.23 0 -0.55 -2.11zm-2.4 -1.75l1.93 0 -0.96 -3.69 -0.97 3.69z"/>
  <polygon id="6" class="fil3" points="146.86,3.67 148.95,3.67 148.95,12.28 152.01,12.28 152.01,3.67 154.1,3.67 154.1,12.29 155.37,12.29 155.23,16.5 153.29,16.5 153.29,14.01 146.86,14.01 "/>
  <polygon id="7" class="fil3" points="162.08,3.67 164.17,3.67 164.17,14.01 162.08,14.01 162.08,7.16 159.03,14.01 156.94,14.01 156.94,3.67 159.03,3.67 159.03,10.52 "/>
  <path id="8" class="fil3" d="M170.05 14.01l0 -3.72 -1.09 0 -1.53 3.72 -2.25 0 1.83 -4.48c-0.85,-0.59 -1.27,-1.48 -1.27,-2.67 0,-1.02 0.29,-1.81 0.86,-2.36 0.57,-0.56 1.39,-0.83 2.45,-0.83l3.1 0 0 10.34 -2.1 0zm-2.22 -6.98c0,0.57 0.1,0.98 0.31,1.24 0.2,0.26 0.52,0.39 0.95,0.39l0.96 0 0 -3.25 -1.03 0c-0.79,0 -1.19,0.54 -1.19,1.62z"/>
  <polygon id="9" class="fil3" points="101.38,21.32 98.83,21.32 98.83,29.92 96.73,29.92 96.73,21.32 94.22,21.32 94.22,19.58 101.38,19.58 "/>
  <polygon id="10" class="fil3" points="108.3,25.45 105.04,25.45 105.04,28.19 108.89,28.19 108.89,29.92 102.96,29.92 102.96,19.58 108.88,19.58 108.88,21.32 105.04,21.32 105.04,23.77 108.3,23.77 "/>
  <polygon id="11" class="fil3" points="117.71,29.92 115.63,29.92 115.63,25.5 112.55,25.5 112.55,29.92 110.46,29.92 110.46,19.58 112.55,19.58 112.55,23.77 115.63,23.77 115.63,19.58 117.71,19.58 "/>
  <polygon id="12" class="fil3" points="127.01,29.92 124.93,29.92 124.93,25.5 121.85,25.5 121.85,29.92 119.76,29.92 119.76,19.58 121.85,19.58 121.85,23.77 124.93,23.77 124.93,19.58 127.01,19.58 "/>
  <polygon id="13" class="fil3" points="134.13,19.58 136.21,19.58 136.21,29.92 134.13,29.92 134.13,23.07 131.08,29.92 128.98,29.92 128.98,19.58 131.08,19.58 131.08,26.43 "/>
  <path id="14" class="fil3" d="M145.25 26.48c-0.05,1.18 -0.38,2.07 -0.99,2.67 -0.61,0.61 -1.47,0.91 -2.59,0.91 -1.17,0 -2.06,-0.38 -2.69,-1.15 -0.62,-0.77 -0.93,-1.87 -0.93,-3.29l0 -1.75c0,-1.42 0.32,-2.51 0.97,-3.29 0.64,-0.76 1.54,-1.15 2.68,-1.15 1.13,0 1.99,0.32 2.57,0.94 0.58,0.63 0.92,1.54 1,2.72l-2.1 0c-0.02,-0.73 -0.13,-1.23 -0.34,-1.51 -0.2,-0.28 -0.58,-0.42 -1.13,-0.42 -0.56,0 -0.95,0.2 -1.19,0.59 -0.23,0.39 -0.35,1.03 -0.36,1.93l0 1.96c0,1.02 0.11,1.73 0.34,2.12 0.23,0.38 0.62,0.57 1.18,0.57 0.55,0 0.93,-0.13 1.14,-0.4 0.21,-0.27 0.33,-0.75 0.35,-1.45l2.09 0z"/>
  <path id="15" class="fil3" d="M151.84 27.81l-2.84 0 -0.56 2.11 -2.2 0 3.23 -10.34 1.91 0 3.25 10.34 -2.23 0 -0.56 -2.11zm-2.39 -1.75l1.93 0 -0.96 -3.69 -0.97 3.69z"/>
  <path id="16" class="fil3" d="M161.41 26.28l0 3.64 -2.09 0 0 -10.34 3.52 0c1.03,0 1.84,0.31 2.45,0.95 0.61,0.63 0.91,1.46 0.91,2.47 0,1.01 -0.3,1.81 -0.9,2.4 -0.6,0.59 -1.43,0.88 -2.5,0.88l-1.39 0zm0 -1.74l1.43 0c0.4,0 0.71,-0.13 0.93,-0.39 0.22,-0.26 0.32,-0.64 0.32,-1.14 0,-0.51 -0.11,-0.92 -0.33,-1.23 -0.22,-0.3 -0.52,-0.45 -0.89,-0.46l-1.46 0 0 3.22z"/>
  <path id="17" class="fil3" d="M175.25 25.68c0,1.39 -0.33,2.46 -0.99,3.23 -0.65,0.77 -1.56,1.15 -2.73,1.15 -1.16,0 -2.07,-0.38 -2.73,-1.14 -0.66,-0.76 -1,-1.82 -1.01,-3.19l0 -1.77c0,-1.42 0.33,-2.53 0.99,-3.33 0.66,-0.8 1.57,-1.2 2.74,-1.2 1.15,0 2.06,0.39 2.72,1.18 0.66,0.78 1,1.88 1.01,3.3l0 1.77zm-2.1 -1.74c0,-0.93 -0.13,-1.63 -0.39,-2.08 -0.27,-0.46 -0.68,-0.68 -1.24,-0.68 -0.55,0 -0.96,0.21 -1.23,0.65 -0.26,0.44 -0.4,1.11 -0.41,2l0 1.84c0,0.91 0.13,1.58 0.4,2.01 0.27,0.43 0.69,0.64 1.25,0.64 0.55,0 0.95,-0.21 1.22,-0.63 0.26,-0.42 0.4,-1.07 0.4,-1.95l0 -1.8z"/>
  <path id="18" class="fil3" d="M184.12 26.48c-0.05,1.18 -0.38,2.07 -0.99,2.67 -0.62,0.61 -1.48,0.91 -2.59,0.91 -1.17,0 -2.06,-0.38 -2.69,-1.15 -0.62,-0.77 -0.93,-1.87 -0.93,-3.29l0 -1.75c0,-1.42 0.32,-2.51 0.96,-3.29 0.65,-0.76 1.54,-1.15 2.69,-1.15 1.13,0 1.98,0.32 2.57,0.94 0.58,0.63 0.91,1.54 0.99,2.72l-2.09 0c-0.02,-0.73 -0.13,-1.23 -0.34,-1.51 -0.2,-0.28 -0.58,-0.42 -1.13,-0.42 -0.56,0 -0.95,0.2 -1.19,0.59 -0.23,0.39 -0.35,1.03 -0.37,1.93l0 1.96c0,1.02 0.12,1.73 0.35,2.12 0.23,0.38 0.62,0.57 1.18,0.57 0.55,0 0.93,-0.13 1.14,-0.4 0.21,-0.27 0.32,-0.75 0.35,-1.45l2.09 0z"/>
  <path id="19" class="fil3" d="M192.79 26.48c-0.06,1.18 -0.39,2.07 -1,2.67 -0.61,0.61 -1.47,0.91 -2.58,0.91 -1.17,0 -2.07,-0.38 -2.69,-1.15 -0.62,-0.77 -0.93,-1.87 -0.93,-3.29l0 -1.75c0,-1.42 0.32,-2.51 0.96,-3.29 0.65,-0.76 1.54,-1.15 2.69,-1.15 1.12,0 1.98,0.32 2.56,0.94 0.59,0.63 0.92,1.54 1,2.72l-2.09 0c-0.02,-0.73 -0.14,-1.23 -0.34,-1.51 -0.21,-0.28 -0.59,-0.42 -1.13,-0.42 -0.56,0 -0.96,0.2 -1.19,0.59 -0.23,0.39 -0.36,1.03 -0.37,1.93l0 1.96c0,1.02 0.11,1.73 0.34,2.12 0.23,0.38 0.63,0.57 1.19,0.57 0.55,0 0.93,-0.13 1.13,-0.4 0.21,-0.27 0.33,-0.75 0.36,-1.45l2.09 0z"/>
  <polygon id="20" class="fil3" points="199.51,19.58 201.6,19.58 201.6,29.92 199.51,29.92 199.51,23.07 196.46,29.92 194.37,29.92 194.37,19.58 196.46,19.58 196.46,26.43 "/>
  <polygon id="21" class="fil3" points="208.69,19.58 210.78,19.58 210.78,29.92 208.69,29.92 208.69,23.07 205.65,29.92 203.55,29.92 203.55,19.58 205.65,19.58 205.65,26.43 "/>
 </g>
</svg>
