<?xml version="1.0" encoding="UTF-8"?>
<!DOCTYPE svg PUBLIC "-//W3C//DTD SVG 1.1//EN" "http://www.w3.org/Graphics/SVG/1.1/DTD/svg11.dtd">
<!-- Creator: CorelDRAW 2018 (64-Bit) -->
<svg xmlns="http://www.w3.org/2000/svg" xml:space="preserve" width="262px" height="50px" version="1.1" style="shape-rendering:geometricPrecision; text-rendering:geometricPrecision; image-rendering:optimizeQuality; fill-rule:evenodd; clip-rule:evenodd"
viewBox="0 0 144.88 27.62"
 xmlns:xlink="http://www.w3.org/1999/xlink">
 <defs>
  <style type="text/css">
   <![CDATA[
    .fil1 {fill:#4574B8}
    .fil2 {fill:#CC2128}
    .fil0 {fill:#CCCCCC}
    .fil3 {fill:#4D4D4D;fill-rule:nonzero}
   ]]>
  </style>
 </defs>
 <g id="Слой_x0020_1">
  <metadata id="CorelCorpID_0Corel-Layer"/>
  <path class="fil0" d="M4.74 3.4c2.48,2.77 3.98,6.41 3.98,10.41 0,3.99 -1.5,7.64 -3.98,10.41 2.44,2.11 5.63,3.4 9.11,3.4 3.49,0 6.68,-1.29 9.11,-3.4 -2.47,-2.77 -3.97,-6.42 -3.97,-10.41 0,-4 1.5,-7.64 3.97,-10.41 -2.43,-2.12 -5.62,-3.4 -9.11,-3.4 -3.48,0 -6.67,1.28 -9.11,3.4zm-1.3 19.52c2.14,-2.43 3.44,-5.62 3.44,-9.11 0,-3.49 -1.3,-6.68 -3.44,-9.11 -2.14,2.43 -3.44,5.62 -3.44,9.11 0,3.49 1.3,6.68 3.44,9.11z"/>
  <path class="fil1" d="M24.27 22.92c2.14,-2.43 3.44,-5.62 3.44,-9.11 0,-3.49 -1.3,-6.68 -3.44,-9.11 -2.14,2.43 -3.44,5.62 -3.44,9.11 0,3.49 1.3,6.68 3.44,9.11zm1.31 -19.52c2.47,2.77 3.97,6.41 3.97,10.41 0,3.99 -1.5,7.64 -3.97,10.41 2.43,2.11 5.62,3.4 9.1,3.4 3.49,0 6.68,-1.29 9.11,-3.4 -2.47,-2.77 -3.97,-6.42 -3.97,-10.41 0,-4 1.5,-7.64 3.97,-10.41 -2.43,-2.12 -5.62,-3.4 -9.11,-3.4 -3.48,0 -6.67,1.28 -9.1,3.4z"/>
  <path class="fil2" d="M46.41 3.4c2.47,2.77 3.97,6.41 3.97,10.41 0,3.99 -1.5,7.64 -3.97,10.41 2.43,2.11 5.62,3.4 9.11,3.4 3.48,0 6.67,-1.29 9.1,-3.4 -2.47,-2.77 -3.97,-6.42 -3.97,-10.41 0,-4 1.5,-7.64 3.97,-10.41 -2.43,-2.12 -5.62,-3.4 -9.1,-3.4 -3.49,0 -6.68,1.28 -9.11,3.4zm-1.31 19.52c2.14,-2.43 3.44,-5.62 3.44,-9.11 0,-3.49 -1.3,-6.68 -3.44,-9.11 -2.14,2.43 -3.44,5.62 -3.44,9.11 0,3.49 1.3,6.68 3.44,9.11zm20.83 0c2.14,-2.43 3.44,-5.62 3.44,-9.11 0,-3.49 -1.3,-6.68 -3.44,-9.11 -2.14,2.43 -3.44,5.62 -3.44,9.11 0,3.49 1.3,6.68 3.44,9.11z"/>
  <path class="fil3" d="M77.03 6.42c0.67,0 1.22,0.25 1.63,0.74 0.42,0.49 0.62,1.12 0.62,1.9 0,0.75 -0.2,1.37 -0.62,1.86 -0.41,0.48 -0.95,0.72 -1.63,0.72l0 0.81 -1.23 0 0 -0.81c-0.46,0 -0.86,-0.11 -1.2,-0.32 -0.34,-0.22 -0.6,-0.52 -0.79,-0.92 -0.19,-0.39 -0.29,-0.83 -0.29,-1.33 0,-0.78 0.21,-1.41 0.63,-1.91 0.41,-0.49 0.96,-0.74 1.65,-0.74l0 -0.83 1.23 0 0 0.83zm-1.3 1.1c-0.31,0 -0.55,0.14 -0.73,0.41 -0.18,0.27 -0.27,0.65 -0.27,1.13 0,0.45 0.09,0.81 0.27,1.08 0.18,0.26 0.43,0.39 0.74,0.39l0.06 0 0 -3.01 -0.07 0zm1.3 0l0 3.01 0.06 0c0.31,0 0.54,-0.13 0.72,-0.4 0.18,-0.26 0.27,-0.62 0.27,-1.07 0,-0.48 -0.09,-0.86 -0.27,-1.13 -0.17,-0.27 -0.42,-0.41 -0.73,-0.41l-0.05 0z"/>
  <polygon id="1" class="fil3" points="83.63,9.46 81.64,9.46 81.64,11.13 84,11.13 84,12.19 80.36,12.19 80.36,5.85 83.99,5.85 83.99,6.92 81.64,6.92 81.64,8.42 83.63,8.42 "/>
  <path id="2" class="fil3" d="M90.04 13.76l-1.18 0 0 -1.57 -3 0 0 1.56 -1.21 0 -0.07 -2.62 0.43 0c0.18,-0.17 0.33,-0.44 0.44,-0.83 0.1,-0.38 0.18,-0.87 0.22,-1.49l0.18 -2.96 3.65 0 0 5.28 0.65 0 -0.11 2.63zm-3.66 -2.63l1.84 0 0 -4.21 -1.15 0 -0.1 1.75c-0.08,1.05 -0.27,1.87 -0.59,2.46z"/>
  <polygon id="3" class="fil3" points="94.31,9.46 92.32,9.46 92.32,11.13 94.68,11.13 94.68,12.19 91.04,12.19 91.04,5.85 94.67,5.85 94.67,6.92 92.32,6.92 92.32,8.42 94.31,8.42 "/>
  <path id="4" class="fil3" d="M96.93 9.96l0 2.23 -1.29 0 0 -6.34 2.16 0c0.63,0 1.13,0.2 1.51,0.59 0.37,0.38 0.55,0.89 0.55,1.51 0,0.62 -0.18,1.11 -0.55,1.47 -0.37,0.36 -0.88,0.54 -1.53,0.54l-0.85 0zm0 -1.07l0.87 0c0.25,0 0.44,-0.08 0.57,-0.24 0.13,-0.16 0.2,-0.39 0.2,-0.69 0,-0.32 -0.07,-0.57 -0.2,-0.75 -0.14,-0.19 -0.32,-0.29 -0.55,-0.29l-0.89 0 0 1.97z"/>
  <path id="5" class="fil3" d="M103.2 10.9l-1.75 0 -0.34 1.29 -1.35 0 1.98 -6.34 1.17 0 1.99 6.34 -1.36 0 -0.34 -1.29zm-1.47 -1.07l1.18 0 -0.59 -2.26 -0.59 2.26z"/>
  <polygon id="6" class="fil3" points="105.68,5.85 106.96,5.85 106.96,11.13 108.84,11.13 108.84,5.85 110.12,5.85 110.12,11.14 110.9,11.14 110.81,13.72 109.62,13.72 109.62,12.19 105.68,12.19 "/>
  <polygon id="7" class="fil3" points="115.01,5.85 116.29,5.85 116.29,12.19 115.01,12.19 115.01,7.99 113.14,12.19 111.86,12.19 111.86,5.85 113.14,5.85 113.14,10.05 "/>
  <path id="8" class="fil3" d="M119.9 12.19l0 -2.28 -0.67 0 -0.93 2.28 -1.39 0 1.13 -2.74c-0.52,-0.36 -0.79,-0.91 -0.79,-1.64 0,-0.63 0.18,-1.11 0.53,-1.45 0.36,-0.34 0.86,-0.51 1.5,-0.51l1.91 0 0 6.34 -1.29 0zm-1.36 -4.28c0,0.35 0.06,0.61 0.19,0.76 0.12,0.16 0.32,0.24 0.58,0.24l0.59 0 0 -1.99 -0.63 0c-0.49,0 -0.73,0.33 -0.73,0.99z"/>
  <polygon id="9" class="fil3" points="77.78,16.68 76.22,16.68 76.22,21.95 74.93,21.95 74.93,16.68 73.39,16.68 73.39,15.61 77.78,15.61 "/>
  <polygon id="10" class="fil3" points="82.02,19.21 80.03,19.21 80.03,20.89 82.39,20.89 82.39,21.95 78.75,21.95 78.75,15.61 82.38,15.61 82.38,16.68 80.03,16.68 80.03,18.18 82.02,18.18 "/>
  <polygon id="11" class="fil3" points="87.8,21.95 86.53,21.95 86.53,19.24 84.63,19.24 84.63,21.95 83.35,21.95 83.35,15.61 84.63,15.61 84.63,18.18 86.53,18.18 86.53,15.61 87.8,15.61 "/>
  <polygon id="12" class="fil3" points="93.5,21.95 92.23,21.95 92.23,19.24 90.34,19.24 90.34,21.95 89.06,21.95 89.06,15.61 90.34,15.61 90.34,18.18 92.23,18.18 92.23,15.61 93.5,15.61 "/>
  <polygon id="13" class="fil3" points="97.87,15.61 99.15,15.61 99.15,21.95 97.87,21.95 97.87,17.75 96,21.95 94.71,21.95 94.71,15.61 96,15.61 96,19.81 "/>
  <path id="14" class="fil3" d="M104.69 19.84c-0.03,0.73 -0.23,1.27 -0.61,1.64 -0.37,0.38 -0.9,0.56 -1.58,0.56 -0.72,0 -1.27,-0.23 -1.65,-0.71 -0.39,-0.47 -0.58,-1.14 -0.58,-2.02l0 -1.07c0,-0.87 0.2,-1.54 0.6,-2.01 0.39,-0.47 0.94,-0.71 1.64,-0.71 0.69,0 1.22,0.19 1.58,0.58 0.36,0.39 0.56,0.94 0.61,1.66l-1.29 0c-0.01,-0.45 -0.08,-0.75 -0.2,-0.92 -0.13,-0.17 -0.36,-0.26 -0.7,-0.26 -0.34,0 -0.58,0.12 -0.73,0.36 -0.14,0.24 -0.21,0.64 -0.22,1.19l0 1.2c0,0.63 0.07,1.06 0.21,1.3 0.14,0.23 0.38,0.35 0.73,0.35 0.33,0 0.57,-0.08 0.69,-0.25 0.13,-0.16 0.2,-0.46 0.22,-0.89l1.28 0z"/>
  <path id="15" class="fil3" d="M108.73 20.66l-1.74 0 -0.34 1.29 -1.36 0 1.99 -6.34 1.17 0 1.99 6.34 -1.37 0 -0.34 -1.29zm-1.46 -1.07l1.18 0 -0.59 -2.26 -0.59 2.26z"/>
  <path id="16" class="fil3" d="M114.6 19.72l0 2.23 -1.28 0 0 -6.34 2.16 0c0.63,0 1.13,0.19 1.5,0.58 0.37,0.39 0.56,0.9 0.56,1.52 0,0.62 -0.18,1.11 -0.55,1.47 -0.37,0.36 -0.88,0.54 -1.54,0.54l-0.85 0zm0 -1.07l0.88 0c0.25,0 0.43,-0.08 0.57,-0.24 0.13,-0.16 0.2,-0.39 0.2,-0.69 0,-0.32 -0.07,-0.57 -0.21,-0.76 -0.13,-0.18 -0.32,-0.28 -0.55,-0.28l-0.89 0 0 1.97z"/>
  <path id="17" class="fil3" d="M123.09 19.35c0,0.85 -0.2,1.51 -0.61,1.99 -0.4,0.47 -0.96,0.7 -1.67,0.7 -0.71,0 -1.27,-0.23 -1.68,-0.7 -0.4,-0.46 -0.61,-1.12 -0.62,-1.96l0 -1.08c0,-0.88 0.21,-1.56 0.61,-2.05 0.4,-0.48 0.96,-0.73 1.68,-0.73 0.71,0 1.26,0.24 1.67,0.72 0.41,0.48 0.61,1.16 0.62,2.03l0 1.08zm-1.29 -1.06c0,-0.58 -0.08,-1 -0.24,-1.28 -0.16,-0.28 -0.42,-0.42 -0.76,-0.42 -0.34,0 -0.59,0.13 -0.75,0.4 -0.16,0.27 -0.25,0.68 -0.26,1.23l0 1.13c0,0.56 0.09,0.96 0.25,1.23 0.17,0.26 0.43,0.39 0.77,0.39 0.33,0 0.58,-0.13 0.75,-0.38 0.16,-0.26 0.24,-0.66 0.24,-1.2l0 -1.1z"/>
  <path id="18" class="fil3" d="M128.53 19.84c-0.03,0.73 -0.24,1.27 -0.61,1.64 -0.37,0.38 -0.9,0.56 -1.59,0.56 -0.71,0 -1.26,-0.23 -1.64,-0.71 -0.39,-0.47 -0.58,-1.14 -0.58,-2.02l0 -1.07c0,-0.87 0.2,-1.54 0.6,-2.01 0.39,-0.47 0.94,-0.71 1.64,-0.71 0.69,0 1.22,0.19 1.58,0.58 0.36,0.39 0.56,0.94 0.61,1.66l-1.29 0c-0.01,-0.45 -0.08,-0.75 -0.2,-0.92 -0.13,-0.17 -0.36,-0.26 -0.7,-0.26 -0.34,0 -0.58,0.12 -0.73,0.36 -0.14,0.24 -0.21,0.64 -0.22,1.19l0 1.2c0,0.63 0.07,1.06 0.21,1.3 0.14,0.23 0.38,0.35 0.72,0.35 0.34,0 0.57,-0.08 0.7,-0.25 0.13,-0.16 0.2,-0.46 0.22,-0.89l1.28 0z"/>
  <path id="19" class="fil3" d="M133.84 19.84c-0.03,0.73 -0.23,1.27 -0.61,1.64 -0.37,0.38 -0.9,0.56 -1.58,0.56 -0.72,0 -1.27,-0.23 -1.65,-0.71 -0.38,-0.47 -0.57,-1.14 -0.57,-2.02l0 -1.07c0,-0.87 0.2,-1.54 0.59,-2.01 0.4,-0.47 0.94,-0.71 1.65,-0.71 0.69,0 1.21,0.19 1.57,0.58 0.36,0.39 0.56,0.94 0.61,1.66l-1.28 0c-0.01,-0.45 -0.08,-0.75 -0.21,-0.92 -0.12,-0.17 -0.36,-0.26 -0.69,-0.26 -0.35,0 -0.59,0.12 -0.73,0.36 -0.14,0.24 -0.22,0.64 -0.23,1.19l0 1.2c0,0.63 0.07,1.06 0.21,1.3 0.15,0.23 0.39,0.35 0.73,0.35 0.34,0 0.57,-0.08 0.7,-0.25 0.13,-0.16 0.2,-0.46 0.21,-0.89l1.28 0z"/>
  <polygon id="20" class="fil3" points="137.97,15.61 139.25,15.61 139.25,21.95 137.97,21.95 137.97,17.75 136.1,21.95 134.81,21.95 134.81,15.61 136.1,15.61 136.1,19.81 "/>
  <polygon id="21" class="fil3" points="143.6,15.61 144.88,15.61 144.88,21.95 143.6,21.95 143.6,17.75 141.73,21.95 140.45,21.95 140.45,15.61 141.73,15.61 141.73,19.81 "/>
 </g>
</svg>
