<?xml version="1.0" encoding="UTF-8"?>
<!DOCTYPE svg PUBLIC "-//W3C//DTD SVG 1.1//EN" "http://www.w3.org/Graphics/SVG/1.1/DTD/svg11.dtd">
<!-- Creator: CorelDRAW 2018 (64-Bit) -->
<svg xmlns="http://www.w3.org/2000/svg" xml:space="preserve" width="114px" height="114px" version="1.1" style="shape-rendering:geometricPrecision; text-rendering:geometricPrecision; image-rendering:optimizeQuality; fill-rule:evenodd; clip-rule:evenodd"
viewBox="0 0 16.05 16.05"
 xmlns:xlink="http://www.w3.org/1999/xlink">
 <defs>
  <style type="text/css">
   <![CDATA[
    .fil0 {fill:#134785}
    .fil1 {fill:#F89C0E}
   ]]>
  </style>
 </defs>
 <g id="Слой_x0020_1">
  <metadata id="CorelCorpID_0Corel-Layer"/>
  <g id="_2411063475984">
   <path class="fil0" d="M14.47 0l-12.89 0c-0.87,0 -1.58,0.71 -1.58,1.58l0 12.89c0,0.87 0.71,1.58 1.58,1.58l12.89 0c0.87,0 1.58,-0.71 1.58,-1.58l0 -12.89c0,-0.87 -0.71,-1.58 -1.58,-1.58z"/>
   <g>
    <path class="fil1" d="M9.65 7.98c-0.05,-1.04 -0.82,-1.67 -1.76,-1.67l-0.03 0c-1.08,0 -1.68,0.85 -1.68,1.81 0,1.08 0.72,1.76 1.67,1.76 1.06,0 1.76,-0.77 1.81,-1.69l-0.01 -0.21 0 0zm-1.79 -2.6c0.72,0 1.4,0.32 1.9,0.82l0 0c0,-0.24 0.16,-0.42 0.38,-0.42l0.06 0c0.35,0 0.42,0.33 0.42,0.44l0 3.72c-0.02,0.24 0.25,0.37 0.41,0.21 0.59,-0.61 1.31,-3.16 -0.38,-4.63 -1.57,-1.37 -3.67,-1.15 -4.79,-0.37 -1.19,0.82 -1.95,2.63 -1.21,4.34 0.81,1.86 3.11,2.42 4.48,1.86 0.7,-0.28 1.02,0.66 0.3,0.97 -1.09,0.46 -4.12,0.41 -5.54,-2.04 -0.96,-1.66 -0.91,-4.57 1.63,-6.08 1.94,-1.16 4.5,-0.84 6.05,0.77 1.61,1.69 1.52,4.85 -0.06,6.07 -0.71,0.56 -1.77,0.02 -1.76,-0.79l-0.01 -0.27c-0.5,0.49 -1.16,0.78 -1.88,0.78 -1.42,0 -2.67,-1.25 -2.67,-2.67 0,-1.44 1.25,-2.71 2.67,-2.71l0 0zm0 0l0 0 0 0z"/>
   </g>
  </g>
 </g>
</svg>
