<?xml version="1.0" encoding="UTF-8"?>
<!DOCTYPE svg PUBLIC "-//W3C//DTD SVG 1.1//EN" "http://www.w3.org/Graphics/SVG/1.1/DTD/svg11.dtd">
<!-- Creator: CorelDRAW 2018 (64-Bit) -->
<svg xmlns="http://www.w3.org/2000/svg" xml:space="preserve" width="114px" height="114px" version="1.1" style="shape-rendering:geometricPrecision; text-rendering:geometricPrecision; image-rendering:optimizeQuality; fill-rule:evenodd; clip-rule:evenodd"
viewBox="0 0 6.83 6.83"
 xmlns:xlink="http://www.w3.org/1999/xlink">
 <defs>
  <style type="text/css">
   <![CDATA[
    .fil0 {fill:#F7931E;fill-rule:nonzero}
    .fil1 {fill:#FEFEFE;fill-rule:nonzero}
   ]]>
  </style>
 </defs>
 <g id="Слой_x0020_1">
  <metadata id="CorelCorpID_0Corel-Layer"/>
  <g id="_2411063495248">
   <path class="fil0" d="M6.16 0l-5.49 0c-0.37,0 -0.67,0.3 -0.67,0.67l0 5.49c0,0.37 0.3,0.67 0.67,0.67l5.49 0c0.37,0 0.67,-0.3 0.67,-0.67l0 -5.49c0,-0.37 -0.3,-0.67 -0.67,-0.67z"/>
   <path class="fil1" d="M3.4 1.91c0.26,0 0.48,0.21 0.48,0.47 0,0.26 -0.22,0.48 -0.48,0.48 -0.26,0 -0.47,-0.22 -0.47,-0.48 0,-0.26 0.21,-0.47 0.47,-0.47zm0 1.62c0.63,0 1.15,-0.52 1.15,-1.15 0,-0.63 -0.52,-1.14 -1.15,-1.14 -0.63,0 -1.14,0.51 -1.14,1.14 0,0.63 0.51,1.15 1.14,1.15z"/>
   <path class="fil1" d="M3.86 4.46c0.24,-0.05 0.46,-0.15 0.67,-0.28 0.16,-0.09 0.2,-0.3 0.1,-0.46 -0.09,-0.15 -0.3,-0.2 -0.46,-0.1 -0.47,0.29 -1.07,0.29 -1.54,0 -0.15,-0.1 -0.36,-0.05 -0.46,0.1 -0.1,0.16 -0.05,0.37 0.11,0.46 0.2,0.13 0.43,0.23 0.66,0.28l-0.64 0.64c-0.13,0.13 -0.13,0.34 0,0.47 0.07,0.07 0.15,0.1 0.24,0.1 0.08,0 0.17,-0.03 0.23,-0.1l0.63 -0.63 0.63 0.63c0.13,0.13 0.34,0.13 0.47,0 0.14,-0.13 0.14,-0.34 0,-0.47l-0.64 -0.64z"/>
  </g>
 </g>
</svg>
