<?xml version="1.0" encoding="UTF-8"?>
<!DOCTYPE svg PUBLIC "-//W3C//DTD SVG 1.1//EN" "http://www.w3.org/Graphics/SVG/1.1/DTD/svg11.dtd">
<!-- Creator: CorelDRAW 2018 (64-Bit) -->
<svg xmlns="http://www.w3.org/2000/svg" xml:space="preserve" width="114px" height="114px" version="1.1" style="shape-rendering:geometricPrecision; text-rendering:geometricPrecision; image-rendering:optimizeQuality; fill-rule:evenodd; clip-rule:evenodd"
viewBox="0 0 5.97 5.97"
 xmlns:xlink="http://www.w3.org/1999/xlink">
 <defs>
  <style type="text/css">
   <![CDATA[
    .fil1 {fill:#FEFEFE}
    .fil0 {fill:#4F7DB3;fill-rule:nonzero}
   ]]>
  </style>
 </defs>
 <g id="Слой_x0020_1">
  <metadata id="CorelCorpID_0Corel-Layer"/>
  <g id="_2411063494128">
   <path class="fil0" d="M5.39 0l-4.8 0c-0.33,0 -0.59,0.26 -0.59,0.59l0 4.8c0,0.32 0.26,0.58 0.59,0.58l4.8 0c0.32,0 0.58,-0.26 0.58,-0.58l0 -4.8c0,-0.33 -0.26,-0.59 -0.58,-0.59z"/>
   <path class="fil1" d="M2.94 4.34l0.27 0c0,0 0.08,-0.01 0.12,-0.05 0.04,-0.04 0.04,-0.12 0.04,-0.12 0,0 -0.01,-0.36 0.16,-0.41 0.17,-0.06 0.38,0.35 0.6,0.5 0.17,0.12 0.3,0.09 0.3,0.09l0.61 -0.01c0,0 0.31,-0.02 0.16,-0.26 -0.01,-0.02 -0.09,-0.19 -0.45,-0.52 -0.37,-0.35 -0.32,-0.3 0.13,-0.9 0.28,-0.37 0.39,-0.6 0.35,-0.69 -0.03,-0.1 -0.23,-0.07 -0.23,-0.07l-0.68 0c0,0 -0.05,0 -0.09,0.02 -0.03,0.02 -0.06,0.07 -0.06,0.07 0,0 -0.1,0.29 -0.25,0.53 -0.3,0.51 -0.42,0.54 -0.47,0.51 -0.11,-0.08 -0.09,-0.3 -0.09,-0.46 0,-0.5 0.08,-0.7 -0.14,-0.76 -0.08,-0.01 -0.13,-0.03 -0.32,-0.03 -0.24,0 -0.45,0 -0.56,0.06 -0.08,0.04 -0.14,0.12 -0.1,0.13 0.04,0 0.14,0.02 0.2,0.1 0.07,0.09 0.06,0.3 0.06,0.3 0,0 0.04,0.59 -0.09,0.66 -0.09,0.05 -0.22,-0.05 -0.48,-0.52 -0.14,-0.23 -0.25,-0.5 -0.25,-0.5 0,0 -0.02,-0.05 -0.05,-0.07 -0.05,-0.03 -0.11,-0.04 -0.11,-0.04l-0.64 0c0,0 -0.1,0 -0.13,0.04 -0.03,0.04 -0.01,0.12 -0.01,0.12 0,0 0.51,1.18 1.08,1.77 0.52,0.55 1.12,0.51 1.12,0.51z"/>
  </g>
 </g>
</svg>
