<?xml version="1.0" encoding="UTF-8"?>
<!DOCTYPE svg PUBLIC "-//W3C//DTD SVG 1.1//EN" "http://www.w3.org/Graphics/SVG/1.1/DTD/svg11.dtd">
<!-- Creator: CorelDRAW 2018 (64-Bit) -->
<svg xmlns="http://www.w3.org/2000/svg" xml:space="preserve" width="114px" height="114px" version="1.1" style="shape-rendering:geometricPrecision; text-rendering:geometricPrecision; image-rendering:optimizeQuality; fill-rule:evenodd; clip-rule:evenodd"
viewBox="0 0 12 12"
 xmlns:xlink="http://www.w3.org/1999/xlink">
 <defs>
  <style type="text/css">
   <![CDATA[
    .fil0 {fill:#F90004;fill-rule:nonzero}
    .fil1 {fill:#FEFEFE;fill-rule:nonzero}
   ]]>
  </style>
 </defs>
 <g id="Слой_x0020_1">
  <metadata id="CorelCorpID_0Corel-Layer"/>
  <g id="_2411063456496">
   <path class="fil0" d="M10.82 0l-9.64 0c-0.65,0 -1.18,0.53 -1.18,1.18l0 9.64c0,0.65 0.53,1.18 1.18,1.18l9.64 0c0.65,0 1.18,-0.53 1.18,-1.18l0 -9.64c0,-0.65 -0.53,-1.18 -1.18,-1.18z"/>
   <path class="fil1" d="M6.83 6.42l-0.44 0c-0.7,0 -1.39,-0.51 -1.39,-1.79 0,-1.33 0.64,-1.88 1.29,-1.88l0.54 0 0 3.67zm0.71 -4.35l-1.22 0c-1.19,0 -2.2,0.91 -2.2,2.67 0,1.05 0.49,1.83 1.36,2.22l-1.62 2.94c-0.06,0.1 0,0.17 0.08,0.17l0.76 0c0.06,0 0.1,-0.02 0.12,-0.07l1.48 -2.89 0.53 0 0 2.89c0,0.03 0.04,0.07 0.08,0.07l0.66 0c0.06,0 0.08,-0.03 0.08,-0.08l0 -7.82c0,-0.07 -0.04,-0.1 -0.11,-0.1z"/>
  </g>
 </g>
</svg>
