<svg width="407" height="56" viewBox="0 0 407 56" xmlns="http://www.w3.org/2000/svg"><title>Group Copy 2</title><g fill="none" fill-rule="evenodd"><path d="M161.67 12.053c0 1.149.389 2.094 1.167 2.835.778.742 1.822 1.145 3.132 1.211V8.007c-1.318.066-2.364.47-3.138 1.21-.774.742-1.161 1.687-1.161 2.836zm8.092 7.345v2.273h-3.793v-2.273c-2.364-.066-4.303-.81-5.819-2.23-1.515-1.421-2.273-3.126-2.273-5.115 0-1.99.76-3.692 2.28-5.109 1.519-1.416 3.456-2.157 5.812-2.223V2.818h3.793v1.903c2.364.066 4.305.807 5.825 2.223 1.52 1.417 2.28 3.12 2.28 5.109 0 1.989-.76 3.694-2.28 5.115-1.52 1.42-3.461 2.164-5.825 2.23zm4.311-7.345c0-1.149-.389-2.094-1.167-2.835-.778-.742-1.826-1.145-3.144-1.211v8.092c1.318-.066 2.366-.47 3.144-1.21.778-.742 1.167-1.687 1.167-2.836zm10.872 5.702h9.488v3.41H181.14V3.447h13.034V6.87h-9.229v3.546h7.203v3.41h-7.203v3.929zm10.736 0h1.013c.066-.066.163-.171.29-.316.128-.144.353-.473.674-.988.321-.515.603-1.08.846-1.699.243-.617.465-1.453.667-2.508.202-1.054.303-2.17.303-3.348V3.448h12.268v14.307h2.162v7.079h-3.805v-3.67h-10.625v3.67h-3.793v-7.08zm7.586-8.859c0 1.178-.097 2.29-.29 3.336-.194 1.046-.425 1.89-.692 2.533a14.422 14.422 0 0 1-.81 1.668c-.271.47-.498.807-.68 1.013l-.308.309h7.462V6.87h-4.682v2.026zm17.333 8.859h9.488v3.41h-13.293V3.447h13.034V6.87h-9.23v3.546h7.203v3.41H220.6v3.929zm13.009-14.307h7.462c1.82 0 3.33.57 4.528 1.711 1.198 1.141 1.797 2.554 1.797 4.238 0 1.684-.597 3.097-1.791 4.237-1.194 1.141-2.706 1.711-4.534 1.711h-3.657v5.82h-3.805V3.447zm7.338 3.422h-3.533v5.053h3.533c.758 0 1.39-.243 1.897-.729.506-.486.76-1.083.76-1.791s-.254-1.307-.76-1.798c-.507-.49-1.139-.735-1.897-.735zm18.977 6.832l-2.15-5.819-2.162 5.82h4.312zm1.26 3.287h-6.832l-1.52 4.175h-4.052l6.968-17.716h4.04l6.968 17.716h-4.053l-1.52-4.175zm8.092 4.175V3.448h3.805v14.307h7.203V3.448h3.792v14.307h2.15v7.079h-3.793v-3.67h-13.157zm35.667 0h-3.793V9.91l-8.722 11.254h-3.299V3.448h3.805v11.267l8.723-11.267h3.286v17.716zm17.704-17.716v17.716h-3.793v-6.202h-3.286l-3.423 6.202h-4.04l3.793-6.708a4.256 4.256 0 0 1-.34-.16c-.144-.075-.397-.264-.76-.569a6.812 6.812 0 0 1-.963-.988c-.28-.354-.533-.845-.76-1.47a5.837 5.837 0 0 1-.34-2.002c0-1.639.573-3.018 1.718-4.139 1.145-1.12 2.594-1.68 4.349-1.68h7.845zm-10.119 5.82c0 .642.229 1.183.686 1.624.457.44 1.032.66 1.724.66h3.916V6.87h-3.916c-.692 0-1.267.227-1.724.68-.457.453-.686 1.025-.686 1.717zM157.37 33.81h13.911v3.422h-5.053v14.294h-3.792V37.232h-5.066V33.81zm20.496 14.307h9.488v3.41h-13.293V33.81h13.034v3.422h-9.229v3.546h7.203v3.41h-7.203v3.929zM206.06 33.81v17.716h-3.793v-7.215h-7.586v7.215h-3.805V33.81h3.805v7.092h7.586V33.81h3.793zm19.73 0v17.716h-3.793v-7.215h-7.586v7.215h-3.805V33.81h3.805v7.092h7.586V33.81h3.793zm20.36 17.716h-3.793V40.272l-8.722 11.254h-3.299V33.81h3.805v11.267l8.722-11.267h3.287v17.716zm13.157-18.086c.93 0 1.816.121 2.656.364.84.243 1.53.537 2.07.883.539.346 1.017.692 1.433 1.038.416.346.714.638.895.877l.284.37-2.409 2.41c-.05-.066-.117-.159-.203-.278-.087-.12-.28-.323-.581-.612a5.849 5.849 0 0 0-.982-.76c-.354-.218-.82-.42-1.396-.605a5.74 5.74 0 0 0-1.767-.278c-1.656 0-3.04.556-4.151 1.668-1.112 1.112-1.668 2.496-1.668 4.151 0 1.656.556 3.04 1.668 4.151 1.112 1.112 2.495 1.668 4.151 1.668a6.38 6.38 0 0 0 1.847-.265c.589-.178 1.077-.388 1.464-.63a9.447 9.447 0 0 0 1.025-.736c.297-.247.511-.46.643-.642l.197-.26 2.286 2.41a4.585 4.585 0 0 1-.303.389c-.136.16-.436.445-.902.852a9.541 9.541 0 0 1-1.494 1.075c-.532.309-1.228.591-2.088.846a9.355 9.355 0 0 1-2.675.383c-2.702 0-4.98-.904-6.838-2.711-1.857-1.808-2.786-3.985-2.786-6.53 0-2.545.929-4.72 2.786-6.523 1.857-1.804 4.136-2.705 6.838-2.705zm19.606 10.624l-2.15-5.819-2.161 5.82h4.311zm1.26 3.287h-6.832l-1.52 4.175h-4.051l6.968-17.716h4.04l6.967 17.716h-4.052l-1.52-4.175zm13.269-13.54h7.462c1.82 0 3.33.57 4.528 1.71 1.198 1.141 1.797 2.554 1.797 4.238 0 1.684-.597 3.097-1.791 4.237-1.194 1.141-2.706 1.711-4.534 1.711h-3.657v5.82h-3.805V33.81zm7.338 3.421h-3.533v5.053h3.533c.758 0 1.39-.243 1.897-.729.506-.486.76-1.083.76-1.791s-.254-1.307-.76-1.798c-.507-.49-1.139-.735-1.897-.735zm12.775 5.442c0 1.635.552 3.013 1.655 4.133 1.104 1.12 2.449 1.68 4.034 1.68s2.93-.56 4.034-1.68c1.103-1.12 1.655-2.498 1.655-4.133 0-1.634-.552-3.014-1.655-4.138-1.104-1.125-2.449-1.687-4.034-1.687s-2.93.562-4.034 1.687c-1.103 1.124-1.655 2.504-1.655 4.138zm-3.929-.006c0-2.545.929-4.72 2.786-6.523 1.857-1.804 4.135-2.705 6.832-2.705s4.975.901 6.832 2.705c1.857 1.804 2.786 3.978 2.786 6.523 0 2.545-.929 4.722-2.786 6.53-1.857 1.807-4.135 2.711-6.832 2.711s-4.975-.904-6.832-2.711c-1.857-1.808-2.786-3.985-2.786-6.53zm31.38-9.228c.93 0 1.816.121 2.656.364.84.243 1.53.537 2.07.883.54.346 1.017.692 1.433 1.038.416.346.714.638.896.877l.284.37-2.41 2.41-.203-.278c-.087-.12-.28-.323-.58-.612a5.849 5.849 0 0 0-.983-.76c-.354-.218-.82-.42-1.396-.605a5.74 5.74 0 0 0-1.767-.278c-1.655 0-3.039.556-4.15 1.668-1.113 1.112-1.669 2.496-1.669 4.151 0 1.656.556 3.04 1.668 4.151 1.112 1.112 2.496 1.668 4.151 1.668a6.38 6.38 0 0 0 1.847-.265c.589-.178 1.077-.388 1.464-.63a9.447 9.447 0 0 0 1.026-.736c.296-.247.51-.46.642-.642l.198-.26 2.285 2.41a4.585 4.585 0 0 1-.303.389c-.135.16-.436.445-.901.852a9.541 9.541 0 0 1-1.495 1.075c-.531.309-1.227.591-2.088.846a9.355 9.355 0 0 1-2.675.383c-2.701 0-4.98-.904-6.838-2.711-1.857-1.808-2.786-3.985-2.786-6.53 0-2.545.929-4.72 2.786-6.523 1.857-1.804 4.137-2.705 6.838-2.705zm19.1 0c.93 0 1.816.121 2.656.364.84.243 1.53.537 2.07.883.539.346 1.017.692 1.433 1.038.416.346.714.638.895.877l.284.37-2.409 2.41c-.05-.066-.117-.159-.203-.278-.087-.12-.28-.323-.581-.612a5.849 5.849 0 0 0-.982-.76c-.354-.218-.82-.42-1.396-.605a5.74 5.74 0 0 0-1.767-.278c-1.656 0-3.04.556-4.151 1.668-1.112 1.112-1.668 2.496-1.668 4.151 0 1.656.556 3.04 1.668 4.151 1.112 1.112 2.495 1.668 4.151 1.668a6.38 6.38 0 0 0 1.847-.265c.589-.178 1.077-.388 1.464-.63a9.447 9.447 0 0 0 1.025-.736c.297-.247.511-.46.643-.642l.197-.26 2.286 2.41a4.585 4.585 0 0 1-.303.389c-.136.16-.436.445-.902.852a9.541 9.541 0 0 1-1.494 1.075c-.532.309-1.228.591-2.088.846a9.355 9.355 0 0 1-2.675.383c-2.702 0-4.98-.904-6.838-2.711-1.857-1.808-2.786-3.985-2.786-6.53 0-2.545.929-4.72 2.786-6.523 1.857-1.804 4.136-2.705 6.838-2.705zm26.302 18.086h-3.792V40.272l-8.723 11.254h-3.298V33.81h3.805v11.267l8.722-11.267h3.286v17.716zm20.36 0h-3.793V40.272l-8.722 11.254h-3.298V33.81h3.805v11.267l8.722-11.267h3.286v17.716z" fill="#080A3C"/><path d="M83.699 6.526C79.095 2.639 73.229.305 66.839.305c-6.382 0-12.253 2.334-16.858 6.22 5.013 5.669 8.077 13.215 8.077 21.494 0 8.278-3.064 15.83-8.077 21.5 4.605 3.884 10.476 6.22 16.858 6.22 6.39 0 12.256-2.336 16.86-6.22-5.012-5.67-8.076-13.222-8.076-21.5 0-8.28 3.064-15.825 8.076-21.493" fill="#1C75BC"/><path d="M123.213 6.526C118.61 2.639 112.74.305 106.353.305c-6.383 0-12.254 2.334-16.855 6.22 5.013 5.669 8.077 13.215 8.077 21.494 0 8.278-3.064 15.83-8.077 21.5 4.601 3.884 10.472 6.22 16.855 6.22 6.388 0 12.258-2.336 16.86-6.22-5.011-5.67-8.076-13.222-8.076-21.5 0-8.28 3.065-15.825 8.076-21.493" fill="#ED1C24"/><path d="M86.597 9.363C82.26 14.29 79.61 20.84 79.61 28.02c0 7.182 2.651 13.731 6.987 18.66 4.339-4.929 6.987-11.478 6.987-18.66 0-7.18-2.648-13.729-6.987-18.656" fill="#ED1C24"/><path d="M44.183 6.526C39.577 2.639 33.71.305 27.326.305c-6.386 0-12.257 2.334-16.858 6.22 5.01 5.669 8.077 13.215 8.077 21.494 0 8.278-3.067 15.83-8.077 21.5 4.6 3.884 10.472 6.22 16.858 6.22 6.385 0 12.251-2.336 16.857-6.22-5.012-5.67-8.076-13.222-8.076-21.5 0-8.28 3.064-15.825 8.076-21.493" fill="#D1D3D4"/><path d="M47.083 9.363c-4.337 4.927-6.987 11.476-6.987 18.656 0 7.182 2.65 13.731 6.987 18.66 4.336-4.929 6.987-11.478 6.987-18.66 0-7.18-2.651-13.729-6.987-18.656" fill="#1C75BC"/><path d="M7.567 9.363C3.23 14.29.58 20.84.58 28.02c0 7.182 2.65 13.731 6.987 18.66 4.338-4.929 6.987-11.478 6.987-18.66 0-7.18-2.649-13.729-6.987-18.656" fill="#D1D3D4"/><path d="M126.114 9.363c-4.339 4.927-6.987 11.476-6.987 18.656 0 7.182 2.648 13.731 6.987 18.66 4.337-4.929 6.984-11.478 6.984-18.66 0-7.18-2.647-13.729-6.984-18.656" fill="#ED1C24"/></g></svg>