<?xml version="1.0" encoding="utf-8"?>
<!-- Generator: Adobe Illustrator 23.0.2, SVG Export Plug-In . SVG Version: 6.00 Build 0)  -->
<svg version="1.1" id="Layer_1" xmlns="http://www.w3.org/2000/svg" xmlns:xlink="http://www.w3.org/1999/xlink" x="0px" y="0px"
	 viewBox="0 0 610.7 353.8" style="enable-background:new 0 0 610.7 353.8;" xml:space="preserve">
<style type="text/css">
	.st0{fill:#D1223E;}
	.st1{fill:#003064;}
</style>
<g>
	<g>
		<rect x="353.3" y="121.3" class="st0" width="5.4" height="7.9"/>
		<rect x="353.3" y="134.5" class="st0" width="5.4" height="7.9"/>
		<path class="st0" d="M258.6,116v-40l17.9-17.9h58.8l17.9,17.9v40h5.4V73.8c-8.2-8.2-12.9-12.9-21.1-21.1h-63.3
			c-8.2,8.2-12.9,12.9-21.1,21.1V116H258.6z"/>
		<rect x="379.8" y="134.5" class="st0" width="5.4" height="7.9"/>
		<rect x="379.8" y="121.3" class="st0" width="5.4" height="7.9"/>
		<rect x="456.4" y="134.5" class="st0" width="18.2" height="7.9"/>
		<polygon class="st0" points="416.6,142.4 451.1,142.4 451.1,134.5 445.7,134.5 445.7,137.1 422,137.1 422,134.5 416.6,134.5 		"/>
		<polygon class="st0" points="474.6,78.2 459.8,63.4 390.5,63.4 390.5,116 411.3,116 411.3,84.2 456.4,84.2 456.4,116 474.6,116 		
			"/>
		<rect x="456.4" y="121.3" class="st0" width="18.2" height="7.9"/>
		<rect x="290" y="134.5" class="st0" width="5.4" height="7.9"/>
		<rect x="319.1" y="134.5" class="st0" width="5.4" height="7.9"/>
		<polygon class="st0" points="324.5,89.5 290,89.5 290,116 295.4,116 295.4,94.9 319.1,94.9 319.1,116 324.5,116 		"/>
		<polygon class="st0" points="290,184.7 324.5,184.7 324.5,147.7 319.1,147.7 319.1,179.3 295.4,179.3 295.4,147.7 290,147.7 		"/>
		<polygon class="st0" points="263.9,196 278.7,210.8 333.2,210.8 348,196 348,147.7 329.8,147.7 329.8,190 284.7,190 284.7,147.7 
			263.9,147.7 		"/>
		<rect x="263.9" y="121.3" class="st0" width="20.8" height="7.9"/>
		<rect x="263.9" y="134.5" class="st0" width="20.8" height="7.9"/>
		<rect x="319.1" y="121.3" class="st0" width="5.4" height="7.9"/>
		<rect x="569.5" y="134.5" class="st0" width="5.4" height="7.9"/>
		<polygon class="st0" points="564.3,84.2 595.9,84.2 595.9,63.4 511.8,63.4 511.8,84.2 543.4,84.2 543.4,116 564.3,116 		"/>
		<rect x="329.8" y="134.5" class="st0" width="18.2" height="7.9"/>
		<rect x="416.6" y="121.3" class="st0" width="5.4" height="7.9"/>
		<rect x="479.9" y="121.3" class="st0" width="5.4" height="7.9"/>
		<rect x="479.9" y="134.5" class="st0" width="5.4" height="7.9"/>
		<rect x="543.4" y="121.3" class="st0" width="20.8" height="7.9"/>
		<rect x="543.4" y="134.5" class="st0" width="20.8" height="7.9"/>
		<polygon class="st0" points="532.8,116 538.2,116 538.2,89.5 506.5,89.5 506.5,58.1 601.2,58.1 601.2,89.5 569.5,89.5 569.5,116 
			575,116 575,94.9 606.6,94.9 606.6,52.7 501.1,52.7 501.1,94.9 532.8,94.9 		"/>
		<rect x="543.4" y="147.7" class="st0" width="20.8" height="63.2"/>
		<rect x="569.5" y="121.3" class="st0" width="5.4" height="7.9"/>
		<rect x="390.5" y="121.3" class="st0" width="20.8" height="7.9"/>
		<polygon class="st0" points="451.1,89.5 416.6,89.5 416.6,116 422,116 422,94.9 445.7,94.9 445.7,116 451.1,116 		"/>
		<polygon class="st0" points="390.5,210.8 411.3,210.8 411.3,168.6 474.6,168.6 474.6,147.7 390.5,147.7 		"/>
		<rect x="445.7" y="121.3" class="st0" width="5.4" height="7.9"/>
		<rect x="532.8" y="121.3" class="st0" width="5.4" height="7.9"/>
		<rect x="532.8" y="134.5" class="st0" width="5.4" height="7.9"/>
		<path class="st0" d="M385.2,116V58.1h76.7l17.9,17.9v40h5.4V73.8c-8.2-8.2-12.9-12.9-21.1-21.1h-84.4V116H385.2z"/>
		<rect x="390.5" y="134.5" class="st0" width="20.8" height="7.9"/>
		<rect x="290" y="121.3" class="st0" width="5.4" height="7.9"/>
		<rect x="36.8" y="134.5" class="st0" width="5.4" height="7.9"/>
		<rect x="126.6" y="134.5" class="st0" width="5.4" height="7.9"/>
		<rect x="36.8" y="121.3" class="st0" width="5.4" height="7.9"/>
		<rect x="126.6" y="121.3" class="st0" width="5.4" height="7.9"/>
		<polygon class="st0" points="76.6,105.3 94.8,105.3 94.8,78.2 80,63.4 25.5,63.4 10.7,78.2 10.7,116 31.5,116 31.5,84.2 
			76.6,84.2 		"/>
		<rect x="10.7" y="121.3" class="st0" width="20.8" height="7.9"/>
		<rect x="10.7" y="134.5" class="st0" width="20.8" height="7.9"/>
		<path class="st0" d="M5.4,116v-40l17.9-17.9h58.8l17.9,17.9v34.5H71.4V89.5H36.8V116h5.4V94.9h23.7V116h39.6V73.8
			C97.3,65.6,92.6,61,84.4,52.7H21.1C12.9,61,8.2,65.6,0,73.8V116H5.4z"/>
		<polygon class="st0" points="10.7,196 25.5,210.8 80,210.8 94.8,196 94.8,168.9 76.6,168.9 76.6,190 31.5,190 31.5,147.7 
			10.7,147.7 		"/>
		<rect y="134.5" class="st0" width="5.4" height="7.9"/>
		<polygon class="st0" points="226.7,147.7 226.7,216.1 197.9,216.1 197.9,147.7 192.5,147.7 192.5,221.5 232.1,221.5 232.1,147.7 
					"/>
		<polygon class="st0" points="479.9,147.7 479.9,173.9 416.6,173.9 416.6,216.1 385.2,216.1 385.2,147.7 379.8,147.7 379.8,221.5 
			422,221.5 422,179.3 485.3,179.3 485.3,147.7 		"/>
		<path class="st0" d="M353.3,147.7v50.5l-17.9,17.9h-58.8l-17.9-17.9v-50.5h-5.4v52.7c8.2,8.2,12.9,12.9,21.1,21.1h63.3
			c8.2-8.2,12.9-12.9,21.1-21.1v-52.7H353.3z"/>
		<rect y="121.3" class="st0" width="5.4" height="7.9"/>
		<polygon class="st0" points="569.5,147.7 569.5,216.1 538.2,216.1 538.2,147.7 532.8,147.7 532.8,221.5 575,221.5 575,147.7 		"/>
		<rect x="137.3" y="121.3" class="st0" width="20.8" height="7.9"/>
		<polygon class="st0" points="163.4,147.7 163.4,216.1 132,216.1 132,147.7 126.6,147.7 126.6,221.5 168.8,221.5 168.8,147.7 		"/>
		<path class="st0" d="M65.9,179.3H42.2v-31.6h-5.4v37.1h34.6v-21.1h28.7v34.5l-17.9,17.9H23.3L5.4,198.2v-50.5H0v52.7
			c8.2,8.2,12.9,12.9,21.1,21.1h63.3c8.2-8.2,12.9-12.9,21.1-21.1v-42.2H65.9V179.3z"/>
		<rect x="203.2" y="121.3" class="st0" width="18.2" height="7.9"/>
		<rect x="253.2" y="121.3" class="st0" width="5.4" height="7.9"/>
		<rect x="203.2" y="147.7" class="st0" width="18.2" height="63.2"/>
		<rect x="137.3" y="147.7" class="st0" width="20.8" height="63.2"/>
		<rect x="203.2" y="134.5" class="st0" width="18.2" height="7.9"/>
		<rect x="253.2" y="134.5" class="st0" width="5.4" height="7.9"/>
		<polygon class="st0" points="348,78.2 333.2,63.4 278.7,63.4 263.9,78.2 263.9,116 284.7,116 284.7,84.2 329.8,84.2 329.8,116 
			348,116 		"/>
		<rect x="226.7" y="134.5" class="st0" width="5.4" height="7.9"/>
		<rect x="226.7" y="121.3" class="st0" width="5.4" height="7.9"/>
		<polygon class="st0" points="132,116 132,58.1 226.7,58.1 226.7,116 232.1,116 232.1,52.7 126.6,52.7 126.6,116 		"/>
		<polygon class="st0" points="197.9,89.5 163.4,89.5 163.4,116 168.8,116 168.8,94.9 192.5,94.9 192.5,116 197.9,116 		"/>
		<rect x="329.8" y="121.3" class="st0" width="18.2" height="7.9"/>
		<rect x="137.3" y="134.5" class="st0" width="20.8" height="7.9"/>
		<rect x="192.5" y="134.5" class="st0" width="5.4" height="7.9"/>
		<rect x="192.5" y="121.3" class="st0" width="5.4" height="7.9"/>
		<polygon class="st0" points="221.4,63.4 137.3,63.4 137.3,116 158.1,116 158.1,84.2 203.2,84.2 203.2,116 221.4,116 		"/>
		<rect x="163.4" y="134.5" class="st0" width="5.4" height="7.9"/>
		<rect x="163.4" y="121.3" class="st0" width="5.4" height="7.9"/>
	</g>
	<g>
		<path class="st1" d="M608.5,212.6c-2.5-7.9-4.6-11.8-7.6-11.3c-1.2,0.2-3.4,1.4-6.5,3.7c-3.2,2.2-5.7,4.6-7.7,7.1
			c-3.4,4.1-8.9,15.3-16.5,33.8c1.7-12.4,1.7-22,0.2-28.8c-1.6-6.9-3.8-10.1-6.7-9.6c-1.3,0.2-3.5,1.4-6.7,3.7
			c-3.2,2.2-5.5,4.4-7,6.3c-4,5.3-9.7,15.1-17.2,29.5c-7.5,14.3-12.4,24.1-14.5,29.3c-1.6,3.8,0.4,4.6,2.7,4.6
			c3.2,0,7.6-0.5,12.9-4.5c5.6-4.3,6-7.2,7-9.6c5.5-13.4,11.4-29.5,15-37.5c1.1,5.1,1.7,13.6,1,21.6c-0.7,8-2.4,13.4-2.7,18
			c-0.3,4.6,0.5,6.8,2.4,6.5c3.8-0.6,8.6-0.8,13.9-5.3c5.3-4.5,7.6-7.3,9.3-11.4c0.8-1.9,11.9-33.8,13-35.8
			c1.6,2.6,2.2,6.7,1.8,12.3c-0.4,5.6-1.1,10.9-2.4,16.1c-3,12.8-3.4,18.9-1,18.6c2.4-0.4,14.1-6.5,14.9-8.4c0.8-1.9,2-9.9,3.7-20.6
			C611.4,229.8,611,220.5,608.5,212.6z"/>
		<path class="st1" d="M490.8,210.2c12.8,2,25.7-10.7,26.7-14.7c1-4.1-0.1-6.3-3.4-6.7c-1.5-0.2-2.4,0.7-4.7,1.8
			c-5.2,2.5-9,4-11.9,3.7c-2.9-0.3-4.5-2.9-5.7-5.4c-1.2-2.5-2.7-3.9-4.3-4.1c-1.7-0.2-10.3,16.5-7.9,19.7
			C481.8,207.7,485.6,209.4,490.8,210.2z"/>
		<path class="st1" d="M589,284.7c-13.1,1.7-217.9,38.2-239.3,42c-12.5,2.2-23,4.6-31.4,7.3c-8.4,2.7-14.7,6.1-14.8,8.4
			c-0.1,2.3,5.5,6.5,6.9,8.6c1.4,2.1,3,3.1,4.6,2.8c1.7-0.2,7.4-5.2,22.8-8.9c7.9-1.9,14.3-3.4,19.1-4.5
			c4.8-1.1,199.9-36.6,210.4-38.8c10.5-2.2,19.2-4.2,26-6c10-2.7,15.6-10,15.7-12.9C609.3,279.2,602.2,283,589,284.7z"/>
		<path class="st1" d="M335.7,267.1c4.6,3.5-4.2,35.5-4.5,37.4c-0.3,1.9,6.2,6.8,11.9,6.6c1.1,0,2-0.9,2.8-2.5c0,0,0,0,0,0
			c9.1-16,23.7-50,26.8-47.6c4.6,3.5-4.2,35.5-4.5,37.4c-0.3,1.9,6.2,6.8,11.9,6.6c5.8-0.1,7.4-19.9,8.7-35.8
			c1.3-15.9-1.4-19.3-7.5-26.3c-6.2-7.1-9.3-6.4-20.8,9.2c-3.4,4.6-6.6,10.1-9.4,15.8c0.7-12.2-1.2-12.5-6.8-18.9
			c-6.2-7.1-9.3-6.4-20.8,9.2c-2.6,3.5-5.1,7.7-7.4,11.9c0.4-5,0.4-9.2-0.5-11.4c-3.8-10.2-14.8-8-14.8-8s-2.1-0.2-1,9.9
			c1.1,10.1-7.2,42.5-9.1,47.3c-1.9,4.8,5.2,12,11.2,10.3C308.8,316.6,331.1,263.7,335.7,267.1z"/>
		<path class="st1" d="M495.4,269.3c1.5-2,2.8-4.1,4-6.1c-0.3,2.8-0.6,5.1-0.9,6.8c-1.5,11.6,8.5,14.7,8.5,14.7s1.7,1.2,5.3-9.1
			c3.7-10.2,7.3-43.6,9.2-48.4c1.9-4.8-5.2-12-11.2-10.3c-1.3,0.4-2.6,2.6-3.7,5.9c-7,15.4-25.3,54.3-30.2,45.6
			c-2.9-5.1,12.3-38.5,12.5-40.4c0.3-1.9-6.2-6.8-11.9-6.6c-5.8,0.1-14.5,26-15.8,42c-1.3,15.9,1,15.7,7.6,22.4
			C475.5,292.5,483.8,285,495.4,269.3z"/>
		<path class="st1" d="M414.1,299.6c8.3-1.2,20.9-16.9,20.9-16.9s-0.4,7.5,7,12.1c7.4,4.6,5.1-14.8,7.4-22.8
			c2.3-8,4.7-10.8,3.9-12.6c-0.9-1.8-2.3-2.6-2.3-2.6s8.4-9.5,4.7-16.9c-3.7-7.4-11.6-11.7-21.8-11.3c-10.2,0.4-18.8,12.2-28.1,26.8
			c-9.3,14.6-13.9,25.1-11.1,31.7C397.6,293.7,405.8,300.8,414.1,299.6z M429.4,247.7c5.9-6.1,9.5-7.2,10.2-1.8
			c0.5,3.5,0.5,7.2,0.5,7.2s-9.3,20.7-23.7,29.1C402.2,290.5,423.6,253.7,429.4,247.7z"/>
	</g>
	<g>
		<g>
			<path class="st1" d="M17.7,32.1l-1.8-8H7.7l-1.8,8H0L7.8,0.4h8l7.8,31.7H17.7z M14.8,18.9l-1.7-7.3c-0.1-0.4-0.3-1.6-0.7-3.4
				c-0.4-1.8-0.6-3-0.6-3.6c-0.2,1.2-0.4,2.6-0.7,4.1c-0.3,1.5-1,4.9-2.2,10.2H14.8z"/>
			<path class="st1" d="M56.7,32.1h-6.6l-8.1-16v16h-5.8V0.5H42v15.3l8.2-15.3h6.3l-8.7,15.2L56.7,32.1z"/>
			<path class="st1" d="M84.1,32.1l-1.8-8H74l-1.8,8h-5.9l7.8-31.7h8L90,32.1H84.1z M81.2,18.9l-1.7-7.3c-0.1-0.4-0.3-1.6-0.7-3.4
				c-0.4-1.8-0.6-3-0.6-3.6c-0.2,1.2-0.4,2.6-0.7,4.1c-0.3,1.5-1,4.9-2.2,10.2H81.2z"/>
			<path class="st1" d="M126.3,41.1h-5.7v-9h-14.2v9h-5.7V26.9h1.9c3-7.9,4.9-16.7,5.7-26.4h14.4v26.4h3.6V41.1z M116.8,26.9V5.7
				h-3.6c-0.4,3.5-0.9,7.1-1.7,10.9c-0.8,3.8-1.7,7.2-2.8,10.3H116.8z"/>
			<path class="st1" d="M153.6,32.1h-14.2V0.5h14.2v5.1h-8.4v7.5h7.8v5.1h-7.8v8.8h8.4V32.1z"/>
			<path class="st1" d="M179.2,32.1l-6-26.9h-0.2c0.3,2.1,0.4,4,0.4,5.7v21.2h-5.4V0.5h9l5.4,24.8h0.2l5.4-24.8h9.2v31.6h-5.6V10.7
				c0-1.8,0.1-3.6,0.3-5.4h-0.2l-6,26.9H179.2z"/>
			<path class="st1" d="M212.2,0.5h5.4v17.3c0,1.8-0.1,3.6-0.4,5.3h0.2l9.6-22.7h7.2v31.6H229V14.8c0-2.1,0.2-4,0.5-5.6h-0.3
				l-9.7,22.9h-7.3V0.5z"/>
			<path class="st1" d="M258.1,19.8l-4.9,12.3h-6.3l6-13.8c-1.4-0.9-2.4-2-3-3.3c-0.6-1.3-1-2.9-1-4.8c0-6.5,3.2-9.7,9.6-9.7h7.6
				v31.6h-5.9V19.8H258.1z M260.3,5.6h-1.4c-1.3,0-2.3,0.3-3,1c-0.6,0.7-1,1.8-1,3.4c0,1.6,0.3,2.7,0.9,3.5c0.6,0.8,1.6,1.2,3,1.2
				h1.5V5.6z"/>
			<path class="st1" d="M321.3,32.1h-5.9V19.8c-2,1.2-4.1,1.9-6.1,1.9c-2.4,0-4.2-0.7-5.5-2.2c-1.3-1.4-2-3.5-2-6.1v-13h5.9v11.7
				c0,1.5,0.2,2.6,0.7,3.3c0.5,0.7,1.2,1,2.2,1c0.9,0,1.7-0.1,2.4-0.4c0.8-0.3,1.5-0.7,2.4-1.2V0.5h5.9V32.1z"/>
			<path class="st1" d="M350.8,32.1h-14.2V0.5h14.2v5.1h-8.4v7.5h7.8v5.1h-7.8v8.8h8.4V32.1z"/>
			<path class="st1" d="M376.3,32.1l-6-26.9h-0.2c0.3,2.1,0.4,4,0.4,5.7v21.2H365V0.5h9l5.4,24.8h0.2L385,0.5h9.2v31.6h-5.6V10.7
				c0-1.8,0.1-3.6,0.3-5.4h-0.2l-6,26.9H376.3z"/>
			<path class="st1" d="M428.9,32.1H423V5.7h-7.8v26.4h-5.9V0.5h19.5V32.1z"/>
			<path class="st1" d="M444.1,0.5h5.4v17.3c0,1.8-0.1,3.6-0.4,5.3h0.2L459,0.5h7.2v31.6h-5.4V14.8c0-2.1,0.2-4,0.5-5.6H461
				l-9.7,22.9h-7.3V0.5z"/>
			<path class="st1" d="M503.2,16.2c0,5.2-1,9.2-2.9,12.1c-2,2.8-4.8,4.2-8.4,4.2c-3.7,0-6.5-1.4-8.4-4.2c-2-2.8-2.9-6.8-2.9-12.1
				c0-5.2,1-9.2,2.9-12c2-2.8,4.8-4.2,8.5-4.2c3.6,0,6.4,1.4,8.4,4.2C502.2,7,503.2,11,503.2,16.2z M486.5,16.2
				c0,3.6,0.5,6.3,1.4,8.2c0.9,1.9,2.2,2.8,4,2.8c3.5,0,5.3-3.7,5.3-11.1c0-7.4-1.8-11.1-5.3-11.1c-1.8,0-3.1,0.9-4,2.8
				C486.9,9.9,486.5,12.6,486.5,16.2z"/>
			<path class="st1" d="M536.9,32.1h-5.9V18.2h-7.8v13.8h-5.9V0.5h5.9v12.6h7.8V0.5h5.9V32.1z"/>
			<path class="st1" d="M573.9,16.2c0,5.2-1,9.2-2.9,12.1c-2,2.8-4.8,4.2-8.4,4.2c-3.7,0-6.5-1.4-8.4-4.2c-2-2.8-2.9-6.8-2.9-12.1
				c0-5.2,1-9.2,2.9-12c2-2.8,4.8-4.2,8.5-4.2c3.6,0,6.4,1.4,8.4,4.2C572.9,7,573.9,11,573.9,16.2z M557.2,16.2
				c0,3.6,0.5,6.3,1.4,8.2c0.9,1.9,2.2,2.8,4,2.8c3.5,0,5.3-3.7,5.3-11.1c0-7.4-1.8-11.1-5.3-11.1c-1.8,0-3.1,0.9-4,2.8
				C557.6,9.9,557.2,12.6,557.2,16.2z"/>
			<path class="st1" d="M588.1,0.5h8.1c3.3,0,5.7,0.6,7.2,1.9c1.5,1.3,2.2,3.3,2.2,6.1c0,1.8-0.4,3.4-1.2,4.6
				c-0.8,1.2-1.9,2-3.2,2.2v0.2c1.8,0.4,3.1,1.3,3.9,2.5c0.8,1.2,1.2,2.9,1.2,4.9c0,2.9-0.8,5.1-2.3,6.7c-1.5,1.6-3.6,2.4-6.3,2.4
				h-9.5V0.5z M593.7,13.2h2.7c1.2,0,2.1-0.3,2.6-1c0.5-0.7,0.8-1.6,0.8-3c0-1.3-0.3-2.3-0.9-2.8c-0.6-0.6-1.5-0.9-2.7-0.9h-2.5
				V13.2z M593.7,18.1v8.8h3c1.2,0,2.1-0.4,2.7-1.1c0.6-0.7,0.9-1.9,0.9-3.5c0-2.8-1.2-4.2-3.7-4.2H593.7z"/>
		</g>
	</g>
</g>
</svg>
